<svg width="162.000000" height="20.000000" viewBox="0 0 162 20" fill="none" xmlns="http://www.w3.org/2000/svg" xmlns:xlink="http://www.w3.org/1999/xlink">
	<desc>
			Created with Pixso.
	</desc>
	<defs/>
	<path id="YOUR LOGO" d="M25.2 18.58Q26.9 19.19 28.82 19.19Q30.75 19.19 32.45 18.57Q33.19 18.3 33.88 17.91Q34.92 17.32 35.76 16.53Q36.78 15.57 37.52 14.31Q37.82 13.78 38.06 13.23Q38.87 11.34 38.87 9.11Q38.87 6.81 38.01 4.88Q37.8 4.39 37.53 3.93Q36.85 2.75 35.92 1.85Q35.03 0.97 33.9 0.35Q33.16 -0.06 32.38 -0.34Q30.7 -0.94 28.82 -0.94Q26.9 -0.94 25.2 -0.33Q24.44 -0.05 23.73 0.35Q22.66 0.94 21.79 1.76Q20.79 2.7 20.06 3.93Q19.76 4.44 19.53 4.97Q18.71 6.86 18.71 9.11Q18.71 11.32 19.5 13.19Q19.74 13.77 20.06 14.31Q20.8 15.57 21.83 16.53Q22.68 17.32 23.73 17.91Q24.44 18.31 25.2 18.58ZM104.5 18.58Q106.2 19.19 108.11 19.19Q110.04 19.19 111.74 18.57Q112.48 18.3 113.18 17.91Q114.22 17.32 115.06 16.53Q116.08 15.57 116.81 14.31Q117.12 13.78 117.36 13.23Q118.16 11.34 118.16 9.11Q118.16 6.81 117.31 4.88Q117.1 4.39 116.83 3.93Q116.15 2.75 115.22 1.85Q114.32 0.97 113.19 0.35Q112.46 -0.06 111.67 -0.34Q110 -0.94 108.11 -0.94Q106.2 -0.94 104.5 -0.33Q103.74 -0.05 103.03 0.35Q101.95 0.94 101.08 1.76Q100.08 2.7 99.36 3.93Q99.06 4.44 98.82 4.97Q98 6.86 98 9.11Q98 11.32 98.8 13.19Q99.04 13.77 99.36 14.31Q100.1 15.57 101.13 16.53Q101.98 17.32 103.03 17.91Q103.74 18.31 104.5 18.58ZM147.84 18.58Q149.54 19.19 151.46 19.19Q153.39 19.19 155.09 18.57Q155.83 18.3 156.52 17.91Q157.56 17.32 158.4 16.53Q159.42 15.57 160.16 14.31Q160.46 13.78 160.7 13.23Q161.5 11.34 161.5 9.11Q161.5 6.81 160.65 4.88Q160.44 4.39 160.17 3.93Q159.49 2.75 158.56 1.85Q157.67 0.97 156.53 0.35Q155.8 -0.06 155.02 -0.34Q153.34 -0.94 151.46 -0.94Q149.54 -0.94 147.84 -0.33Q147.09 -0.05 146.37 0.35Q145.3 0.94 144.43 1.76Q143.43 2.7 142.7 3.93Q142.4 4.44 142.17 4.97Q141.35 6.86 141.35 9.11Q141.35 11.32 142.14 13.19Q142.38 13.77 142.7 14.31Q143.44 15.57 144.47 16.53Q145.32 17.32 146.37 17.91Q147.09 18.31 147.84 18.58ZM133.27 4.74Q133.62 5.1 133.87 5.56L139.16 5.56Q138.68 3.71 137.6 2.36Q136.9 1.49 135.96 0.83Q135.83 0.73 135.69 0.65Q133.35 -0.88 130 -0.88Q127.34 -0.88 125.22 0.18Q125.02 0.28 124.82 0.39Q123.75 0.99 122.91 1.82Q121.96 2.74 121.28 3.95Q121.18 4.14 121.08 4.34Q120.01 6.47 120.01 9.14Q120.01 11.82 121.09 13.96Q121.18 14.14 121.28 14.32Q121.91 15.43 122.77 16.3Q123.68 17.21 124.84 17.86Q125.05 17.97 125.26 18.08Q127.39 19.13 130.04 19.13Q132.5 19.13 134.45 18.18Q136.35 17.26 137.61 15.79Q137.65 15.74 137.69 15.69Q138.88 14.26 139.42 12.61Q139.46 12.48 139.5 12.36L139.5 7.91L129.08 7.91L129.08 11.43L135.16 11.43Q134.65 12.96 133.6 13.84Q133.49 13.93 133.38 14.01Q133.23 14.12 133.07 14.22Q131.95 14.91 130.4 14.91Q128.33 14.91 126.97 13.92Q126.64 13.68 126.35 13.38Q126.22 13.24 126.09 13.09Q124.88 11.6 124.88 9.14Q124.88 6.91 125.95 5.47Q126.1 5.26 126.28 5.06Q126.73 4.57 127.29 4.23Q128.43 3.54 130 3.54Q131.35 3.54 132.34 4.06Q132.87 4.33 133.27 4.74ZM10.78 12.5L17.59 -0.66L12.21 -0.66L8.43 7.57L4.62 -0.66L-0.81 -0.66L6 12.5L6 19L10.78 19L10.78 12.5ZM46.23 11.1L46.23 -0.66L41.45 -0.66L41.45 11.07Q41.45 13.7 42.5 15.54Q43.15 16.64 44.07 17.42Q44.68 17.92 45.4 18.28Q47.24 19.19 49.57 19.19Q51.8 19.19 53.63 18.34Q53.7 18.31 53.77 18.27Q54.64 17.84 55.35 17.23Q56.18 16.51 56.79 15.52Q57.91 13.7 57.91 11.07L57.91 -0.66L53.12 -0.66L53.12 11.1Q53.12 12.83 52.26 13.78Q52.24 13.8 52.23 13.82Q52.11 13.94 51.98 14.05Q51.11 14.77 49.65 14.77Q48.18 14.77 47.33 14.04Q47.21 13.94 47.1 13.82Q46.23 12.86 46.23 11.1ZM67.2 11.58L71.29 19L76.7 19L72.16 11.21Q74.08 10.64 75.16 9.36Q75.3 9.2 75.42 9.03Q75.87 8.4 76.14 7.7Q76.53 6.69 76.53 5.53Q76.53 4.26 76.09 3.17Q75.93 2.76 75.71 2.38Q75.57 2.13 75.4 1.9Q74.62 0.82 73.26 0.16Q71.62 -0.66 69.31 -0.66L61.27 -0.66L61.27 19L66.05 19L66.05 11.58L67.2 11.58ZM96.52 15.3L90.24 15.3L90.24 -0.66L85.46 -0.66L85.46 19L96.52 19L96.52 15.3ZM69.03 8.19L66.05 8.19L66.05 3.31L69.03 3.31Q70.34 3.31 70.99 3.96Q71.13 4.1 71.24 4.25Q71.66 4.84 71.66 5.72Q71.66 6.75 71.15 7.37Q71.08 7.46 70.99 7.54Q70.34 8.19 69.03 8.19ZM31.52 14.14Q30.37 14.83 28.82 14.83Q27.18 14.83 26 14.09Q25.47 13.76 25.02 13.27Q24.85 13.09 24.7 12.88Q23.61 11.4 23.61 9.11Q23.61 6.74 24.75 5.26Q24.88 5.09 25.02 4.94Q25.45 4.47 25.97 4.15Q27.16 3.4 28.82 3.4Q30.39 3.4 31.55 4.1Q32.12 4.44 32.58 4.95Q32.75 5.14 32.9 5.34Q34 6.81 34 9.11Q34 11.33 32.95 12.8Q32.78 13.04 32.58 13.26Q32.1 13.79 31.52 14.14ZM110.82 14.14Q109.67 14.83 108.11 14.83Q106.48 14.83 105.3 14.09Q104.76 13.76 104.32 13.27Q104.15 13.09 104 12.88Q102.9 11.4 102.9 9.11Q102.9 6.74 104.05 5.26Q104.18 5.09 104.32 4.94Q104.75 4.47 105.27 4.15Q106.46 3.4 108.11 3.4Q109.69 3.4 110.84 4.1Q111.41 4.44 111.88 4.95Q112.05 5.14 112.19 5.34Q113.29 6.81 113.29 9.11Q113.29 11.33 112.25 12.8Q112.08 13.04 111.88 13.26Q111.4 13.79 110.82 14.14ZM154.16 14.14Q153.01 14.83 151.46 14.83Q149.82 14.83 148.64 14.09Q148.11 13.76 147.66 13.27Q147.49 13.09 147.34 12.88Q146.25 11.4 146.25 9.11Q146.25 6.74 147.39 5.26Q147.52 5.09 147.66 4.94Q148.09 4.47 148.61 4.15Q149.8 3.4 151.46 3.4Q153.03 3.4 154.19 4.1Q154.76 4.44 155.22 4.95Q155.39 5.14 155.54 5.34Q156.64 6.81 156.64 9.11Q156.64 11.33 155.59 12.8Q155.42 13.04 155.22 13.26Q154.74 13.79 154.16 14.14Z" fill="#22262A" fill-opacity="1.000000" fill-rule="evenodd"/>
</svg>
